<svg id="Layer_1" data-name="Layer 1" xmlns="http://www.w3.org/2000/svg" viewBox="0 0 378.42 163.8"><defs><style>.cls-1{fill:#e0ab2f;}.cls-2{fill:#113e65;}.cls-3{fill:#05afa5;}</style></defs><path class="cls-1" d="M368,62.94c-1.79-1.19-3.77-2.09-5.78-3.19a23.09,23.09,0,0,0-1.56,2.4,3.94,3.94,0,0,0,.11,4,8.23,8.23,0,0,0,1.61,2c1.71,1.47,3.51,2.84,5.33,4.3C371.34,70,371.55,65.28,368,62.94Z"/><path class="cls-1" d="M365.86,46.64c1.64-2.85.46-7.62-4-8.15a39.51,39.51,0,0,0-6.77.28.52.52,0,0,0-.34.31,5.89,5.89,0,0,0,.1,3.55,5,5,0,0,0,4.26,3.1C361.32,46.09,363.58,46.34,365.86,46.64Z"/><path class="cls-1" d="M277,48.27c-.44-.47-.84-1-1.24-1.43-4.15,1.92-4.82,6.87-1.31,9.7,1.54,1.24,3.2,2.33,4.85,3.52,1.47-1.17,2.61-2.41,2.68-4.29a5.77,5.77,0,0,0-1.83-4.18C279.1,50.47,278,49.38,277,48.27Z"/><path class="cls-1" d="M350.91,25.32A5.58,5.58,0,0,0,345,20.25L345,20.1a13.91,13.91,0,0,0-2.43.94c-1.68,1.05-3.28,2.23-4.9,3.38a.6.6,0,0,0-.19.49,4.9,4.9,0,0,0,4.95,3.92A8.52,8.52,0,0,0,345,28.2c1.89-.75,3.75-1.59,5.62-2.42A.57.57,0,0,0,350.91,25.32Z"/><path class="cls-1" d="M281.93,35.64c-.14-.27-.28-.39-.59-.32a5.67,5.67,0,0,0-4.66,5.87l-.15.06a12.18,12.18,0,0,0,1.06,2.57c1.18,1.66,2.51,3.22,3.8,4.8a.55.55,0,0,0,.5.17c1.8-.74,3.25-1.85,3.58-3.93a6.4,6.4,0,0,0-.86-4C283.71,39.14,282.81,37.4,281.93,35.64Z"/><path class="cls-1" d="M290.8,26.85c-.24-1.22,0-1.2-1.4-1.15A5.47,5.47,0,0,0,284.34,33a59.31,59.31,0,0,0,2.35,5.58.62.62,0,0,0,.5.26A5,5,0,0,0,292,32.44C291.57,30.58,291.16,28.72,290.8,26.85Z"/><path class="cls-1" d="M278.77,63.09c-1.84-1.21-3.77-2.29-5.71-3.45a5.56,5.56,0,0,0,1.2,9.53c1.89.86,3.88,1.48,5.89,2.24.38-.69.76-1.26,1-1.87a4.21,4.21,0,0,0-.31-4.45A8.36,8.36,0,0,0,278.77,63.09Z"/><path class="cls-1" d="M360,35.09a21.15,21.15,0,0,0-.2-2.62,5.33,5.33,0,0,0-6.25-4.14c-2.11.53-4.15,1.35-6.2,2.06a.54.54,0,0,0-.3.42c.12,2.42,1.18,4.92,4.37,5.2a17.58,17.58,0,0,0,3.46-.25C356.53,35.57,358.17,35.33,360,35.09Z"/><path class="cls-1" d="M361.75,56.43a7.68,7.68,0,0,0,.81.41l6,2.55a5.53,5.53,0,0,0-2.47-9.27c-1.88-.56-3.83-.85-5.75-1.23a.62.62,0,0,0-.5.24A4.93,4.93,0,0,0,361.75,56.43Z"/><path class="cls-1" d="M301.41,18.83a5.74,5.74,0,0,0-6.67,1.89,6.44,6.44,0,0,0-1,4.72c.18,1.21.32,2.43.54,3.63.29,1.63.32,1.65,2,1.64A4.42,4.42,0,0,0,300.6,28a7.72,7.72,0,0,0,.6-2.31c.22-2.15.35-4.31.49-6.47A.54.54,0,0,0,301.41,18.83Z"/><path class="cls-2" d="M16.59,84.5a16.05,16.05,0,0,0,6.79,5.87,20.32,20.32,0,0,0,8.53,1.89,17.35,17.35,0,0,0,5-.76,15.31,15.31,0,0,0,4.65-2.3A12.63,12.63,0,0,0,45,85.42a10.09,10.09,0,0,0,1.33-5.21,7.8,7.8,0,0,0-2.66-6.38,23.12,23.12,0,0,0-6.59-3.68c-2.62-1-5.48-1.94-8.57-2.86a34.65,34.65,0,0,1-8.58-3.83,21,21,0,0,1-6.59-6.58q-2.65-4.14-2.66-11.19a19.26,19.26,0,0,1,5.72-13.27,24,24,0,0,1,7.61-5,28.47,28.47,0,0,1,11.18-2,39,39,0,0,1,11.34,1.64A19.48,19.48,0,0,1,56,33.74L48,41a13.17,13.17,0,0,0-5.21-4.6,16.43,16.43,0,0,0-7.66-1.74,18.48,18.48,0,0,0-6.79,1.08A12.21,12.21,0,0,0,24,38.49a9.77,9.77,0,0,0-2.29,3.63,10.89,10.89,0,0,0-.67,3.57q0,4.61,2.66,7.05a20.64,20.64,0,0,0,6.58,4,80.24,80.24,0,0,0,8.58,2.76,37,37,0,0,1,8.58,3.42,20.07,20.07,0,0,1,6.59,5.92q2.66,3.74,2.65,10.27a21.55,21.55,0,0,1-2,9.39,20.71,20.71,0,0,1-5.36,7,23.69,23.69,0,0,1-8,4.39,30.81,30.81,0,0,1-9.8,1.53A35.5,35.5,0,0,1,18.43,99a21.62,21.62,0,0,1-9.91-7.55Z"/><path class="cls-2" d="M81.44,27.31h9.8V99.62h-9.8Z"/><path class="cls-2" d="M118.41,27.31h25.22a46.61,46.61,0,0,1,13.43,1.74,35.44,35.44,0,0,1,10,4.64,29.3,29.3,0,0,1,7.05,6.69,36,36,0,0,1,4.44,7.76,39.43,39.43,0,0,1,2.35,8,41.54,41.54,0,0,1,.71,7.35,36.37,36.37,0,0,1-2.55,13.43,33.78,33.78,0,0,1-7.56,11.54,37.15,37.15,0,0,1-12.4,8.12A44.54,44.54,0,0,1,142,99.62H118.41Zm9.8,63.12h12.36a40.7,40.7,0,0,0,11.8-1.69,28.45,28.45,0,0,0,9.75-5.06,24.21,24.21,0,0,0,6.64-8.42,26.8,26.8,0,0,0,2.45-11.8,35.23,35.23,0,0,0-1.13-8.12,24.44,24.44,0,0,0-4.23-8.83,25.24,25.24,0,0,0-8.63-7.1q-5.52-2.91-14.3-2.91H128.21Z"/><path class="cls-2" d="M205.93,27.31h25.43A29.74,29.74,0,0,1,242.8,29.2a19.55,19.55,0,0,1,7.1,4.8,16.39,16.39,0,0,1,3.62,6.54,25.7,25.7,0,0,1,1,7A18.75,18.75,0,0,1,249.79,60a20,20,0,0,1-5.61,4.39,19.4,19.4,0,0,1-7.41,2.2l20.53,33H245.05L226.66,67.75H215.74V99.62h-9.81Zm9.81,31.86H228.6a34.61,34.61,0,0,0,5.67-.46,15.11,15.11,0,0,0,5-1.68,9.29,9.29,0,0,0,3.52-3.52,12,12,0,0,0,1.33-6,11.89,11.89,0,0,0-1.33-6A9.32,9.32,0,0,0,239.28,38a15.58,15.58,0,0,0-5-1.68,34.61,34.61,0,0,0-5.67-.46H215.74Z"/><path class="cls-3" d="M16.83,129.63H33.57V132H19.44v9.94H32.58v2.37H19.44v13.26H16.83Z"/><path class="cls-3" d="M68,129.63h2.61v27.94H68Z"/><path class="cls-3" d="M107.39,129.63h3.35l17,24.47h.08V129.63h2.61v27.94h-3.36l-17-24.47H110v24.47h-2.6Z"/><path class="cls-3" d="M175.83,129.63h2.69l11.76,27.94h-2.92l-3-7.42h-14.8l-3.16,7.42h-2.72Zm1.23,2.84-6.52,15.32h12.83Z"/><path class="cls-3" d="M223.48,129.63h3.36l17,24.47h.08V129.63h2.6v27.94h-3.35l-17-24.47h-.07v24.47h-2.61Z"/><path class="cls-3" d="M306.38,153.19a11.83,11.83,0,0,1-4.66,3.91,13.82,13.82,0,0,1-5.72,1.19,15.49,15.49,0,0,1-5.87-1.09,13.31,13.31,0,0,1-4.56-3,13.9,13.9,0,0,1-3-4.66,16.89,16.89,0,0,1,0-11.78,14,14,0,0,1,3-4.64,13.66,13.66,0,0,1,4.56-3.06,15.3,15.3,0,0,1,5.87-1.1,13.89,13.89,0,0,1,5.3,1,10.54,10.54,0,0,1,4.33,3.38l-2.13,1.77a7.78,7.78,0,0,0-3.34-2.88,10.2,10.2,0,0,0-4.16-.91,12.3,12.3,0,0,0-4.92.95,10.92,10.92,0,0,0-3.73,2.61,11.55,11.55,0,0,0-2.37,3.91,14.61,14.61,0,0,0,0,9.71,11.5,11.5,0,0,0,2.37,3.9,10.92,10.92,0,0,0,3.73,2.61,12.3,12.3,0,0,0,4.92.95,10.22,10.22,0,0,0,2.21-.26,9.9,9.9,0,0,0,2.23-.79,10.58,10.58,0,0,0,2.07-1.34,8.46,8.46,0,0,0,1.74-2Z"/><path class="cls-3" d="M340.33,129.63h17.09V132H342.93v9.94h13.58v2.37H342.93v10.9h15.12v2.36H340.33Z"/><path class="cls-2" d="M350.71,77.35l4.43,6.05-.17.14c-2.25,1.5-4.48,3-6.76,4.51-3.6,2.31-7.23,4.57-10.86,6.84a11.09,11.09,0,0,1-4.62,1.7A5.67,5.67,0,0,1,327,93.66,9.86,9.86,0,0,1,326,88.75V64.48c3.73-1.22,7.37-2.64,11-4.19,3-1.3,6-2.65,9-4-.1-.13-.15-.24-.22-.28-.83-.4-1.65-.8-2.48-1.18a147,147,0,0,0-17.29-7c0-5.64,0-16.53,0-18.46a.54.54,0,0,1,.25-.36,10.85,10.85,0,0,0,3-2.27,11,11,0,0,0,2.39-12.15A11.25,11.25,0,0,0,319.86,7.5,10.76,10.76,0,0,0,313,10.76a11.07,11.07,0,0,0-3,11.1A11.12,11.12,0,0,0,315.68,29c.29.17.44.29.44.65,0,1.81,0,12.88,0,18.28-2.1.66-4.19,1.37-6.24,2.19-1.85.73-3.61,1.71-5.46,2.39-2.81,1-5.45,2.43-8.32,3.65a3.08,3.08,0,0,0,.3.21,166.51,166.51,0,0,0,19.71,8.1v15.3c0,3.07,0,6.13,0,9.2A9.51,9.51,0,0,1,315,93.74a5.41,5.41,0,0,1-4.84,2.86,7.84,7.84,0,0,1-4.11-1c-2-1.13-4-2.3-5.95-3.54-3.69-2.36-7.35-4.78-11-7.17-.72-.47-1.43-1-2.17-1.46l4.45-6.07-20.87-1.49c1.57,1.68,3,3.32,4.57,4.88,2.29,2.31,4.57,4.63,7,6.81s4.86,4.26,7.38,6.28a79.35,79.35,0,0,0,12.94,8.35,82.51,82.51,0,0,0,18.5,6.93,1,1,0,0,0,.41,0,82.83,82.83,0,0,0,13.71-4.63,83.46,83.46,0,0,0,15.77-9.14,111.1,111.1,0,0,0,11-9.23c1.66-1.59,3.25-3.25,4.86-4.89,1.21-1.25,2.41-2.52,3.6-3.79.48-.49.93-1,1.44-1.56ZM339.23,55.43l-10.46.47s.38-3.28-1.12-4.91Zm-17.75,5.11a3.91,3.91,0,0,1-.48.05,4,4,0,0,1-.69-.07,4.21,4.21,0,0,1-1.29-.45,4.41,4.41,0,0,1-1.4-1.09l0,0c-.11-.14-.22-.28-.31-.42a4.65,4.65,0,0,1-.34-.62h0a4.48,4.48,0,0,1-.35-1.72,4.41,4.41,0,1,1,5.3,4.33A2.58,2.58,0,0,1,321.48,60.54ZM315.84,19a5.16,5.16,0,0,1,5.22-5.31,5.2,5.2,0,0,1,0,10.39A5.15,5.15,0,0,1,315.84,19Z"/></svg>